<svg width="32" height="36" viewBox="0 0 32 36" fill="none" xmlns="http://www.w3.org/2000/svg">
<path d="M19 16.25C21.2091 16.25 23 14.4591 23 12.25V9.25C23 7.39348 22.2625 5.61301 20.9497 4.30025C19.637 2.9875 17.8565 2.25 16 2.25C14.1435 2.25 12.363 2.9875 11.0503 4.30025C9.7375 5.61301 9 7.39348 9 9.25V12.25C9 14.4591 10.7909 16.25 13 16.25H19ZM3.44435 16.4178C3.61711 14.3446 5.35018 12.75 7.43053 12.75H24.5695C26.6498 12.75 28.3829 14.3446 28.5557 16.4178L29.639 29.4178C29.8333 31.7499 27.993 33.75 25.6528 33.75H6.3472C4.00704 33.75 2.16668 31.7499 2.36102 29.4178L3.44435 16.4178Z" stroke="#141615" stroke-width="3" stroke-linecap="round" stroke-linejoin="round"/>
</svg>
