<svg width="10" height="10" viewBox="0 0 10 10" fill="none" xmlns="http://www.w3.org/2000/svg">
<path d="M1 9.5C0.725 9.5 0.489667 9.40217 0.294 9.2065C0.098 9.0105 0 8.775 0 8.5V3C0 2.725 0.098 2.48967 0.294 2.294C0.489667 2.098 0.725 2 1 2H3V1C3 0.725 3.098 0.4895 3.294 0.2935C3.48967 0.0978333 3.725 0 4 0H6C6.275 0 6.5105 0.0978333 6.7065 0.2935C6.90217 0.4895 7 0.725 7 1V2H9C9.275 2 9.5105 2.098 9.7065 2.294C9.90217 2.48967 10 2.725 10 3V8.5C10 8.775 9.90217 9.0105 9.7065 9.2065C9.5105 9.40217 9.275 9.5 9 9.5H1ZM4 2H6V1H4V2ZM9 6.5H6.5V7.5H3.5V6.5H1V8.5H9V6.5ZM4.5 6.5H5.5V5.5H4.5V6.5ZM1 5.5H3.5V4.5H6.5V5.5H9V3H1V5.5Z" fill="#262732"/>
</svg>
