<svg width="26" height="25" viewBox="0 0 26 25" fill="none" xmlns="http://www.w3.org/2000/svg">
<path d="M20.6299 2.75589L23.7945 5.68791L21.382 7.92406L18.2174 4.99204L20.6299 2.75589ZM9.03906 16.4269H12.2036L19.8904 9.30504L16.7258 6.37302L9.03906 13.4949V16.4269Z" fill="#141615"/>
<path d="M20.6424 19.3589H9.20562C9.1782 19.3589 9.14972 19.3687 9.12229 19.3687C9.08748 19.3687 9.05267 19.3599 9.0168 19.3589H5.87437V5.67619H13.097L15.2067 3.72151H5.87437C4.71086 3.72151 3.76465 4.59721 3.76465 5.67619V19.3589C3.76465 20.4379 4.71086 21.3136 5.87437 21.3136H20.6424C21.202 21.3136 21.7386 21.1077 22.1342 20.7411C22.5299 20.3745 22.7521 19.8774 22.7521 19.3589V10.8874L20.6424 12.842V19.3589Z" fill="#141615"/>
</svg>
