<svg width="10" height="10" viewBox="0 0 10 10" fill="none" xmlns="http://www.w3.org/2000/svg">
<path d="M5 9.5C3.85 9.5 2.848 9.11867 1.994 8.356C1.13967 7.59367 0.65 6.64167 0.525 5.5H1.55C1.66667 6.36667 2.052 7.08333 2.706 7.65C3.36033 8.21667 4.125 8.5 5 8.5C5.975 8.5 6.802 8.16033 7.481 7.481C8.16033 6.802 8.5 5.975 8.5 5C8.5 4.025 8.16033 3.19783 7.481 2.5185C6.802 1.8395 5.975 1.5 5 1.5C4.425 1.5 3.8875 1.63333 3.3875 1.9C2.8875 2.16667 2.46667 2.53333 2.125 3H3.5V4H0.5V1H1.5V2.175C1.925 1.64167 2.44383 1.22917 3.0565 0.9375C3.66883 0.645833 4.31667 0.5 5 0.5C5.625 0.5 6.2105 0.618667 6.7565 0.856C7.30217 1.09367 7.77717 1.4145 8.1815 1.8185C8.5855 2.22283 8.90633 2.69783 9.144 3.2435C9.38133 3.7895 9.5 4.375 9.5 5C9.5 5.625 9.38133 6.21033 9.144 6.756C8.90633 7.302 8.5855 7.777 8.1815 8.181C7.77717 8.58533 7.30217 8.90633 6.7565 9.144C6.2105 9.38133 5.625 9.5 5 9.5ZM6.4 7.1L4.5 5.2V2.5H5.5V4.8L7.1 6.4L6.4 7.1Z" fill="#262732"/>
</svg>
<svg width="78" height="47" viewBox="0 0 78 47" fill="none" xmlns="http://www.w3.org/2000/svg">
<path d="M38.5354 9.63384C32.1505 9.63384 26.9747 15.6718 26.9747 23.1212C26.9747 30.5694 32.1505 36.6086 38.5354 36.6086C44.9178 36.6086 50.096 30.5718 50.096 23.1212C50.096 15.6718 44.9202 9.63384 38.5354 9.63384ZM43.3523 29.8649C43.3523 30.3972 42.9212 30.8283 42.3889 30.8283H34.6818C34.1495 30.8283 33.7184 30.3972 33.7184 29.8649V27.9381C33.7184 27.4059 34.1495 26.9748 34.6818 26.9748H36.6086V20.2985L36.552 20.3358C36.4468 20.406 36.3287 20.4548 36.2047 20.4794C36.0806 20.504 35.9529 20.5038 35.8288 20.479C35.7048 20.4542 35.5869 20.4051 35.4818 20.3347C35.3767 20.2643 35.2866 20.1738 35.2165 20.0685L34.1471 18.4657C34.0769 18.3604 34.0281 18.2424 34.0036 18.1183C33.979 17.9942 33.9791 17.8665 34.004 17.7425C34.0288 17.6185 34.0778 17.5005 34.1483 17.3955C34.2187 17.2904 34.3092 17.2002 34.4145 17.1302L36.2606 15.8994C36.7352 15.583 37.2929 15.4141 37.8634 15.4141H39.4987C40.031 15.4141 40.4621 15.8453 40.4621 16.3775V26.9748H42.3889C42.9212 26.9748 43.3523 27.4059 43.3523 27.9381V29.8649ZM73.2172 0H3.85354C1.72566 0 0 1.72566 0 3.85354V42.3889C0 44.5168 1.72566 46.2424 3.85354 46.2424H73.2172C75.345 46.2424 77.0707 44.5168 77.0707 42.3889V3.85354C77.0707 1.72566 75.345 0 73.2172 0ZM71.2904 32.7551C67.0335 32.7551 63.5833 36.2052 63.5833 40.4621H13.4874C13.4874 36.2052 10.0373 32.7551 5.7803 32.7551V13.4874C10.0373 13.4874 13.4874 10.0373 13.4874 5.7803H63.5833C63.5833 10.0373 67.0335 13.4874 71.2904 13.4874V32.7551Z" fill="#262732"/>
</svg>
