<svg width="12" height="8" viewBox="0 0 12 8" fill="none" xmlns="http://www.w3.org/2000/svg">
<path d="M0.5 8V6.6C0.5 6.31667 0.573 6.05617 0.719 5.8185C0.864667 5.58117 1.05833 5.4 1.3 5.275C1.81667 5.01667 2.34167 4.82283 2.875 4.6935C3.40833 4.5645 3.95 4.5 4.5 4.5C5.05 4.5 5.59167 4.5645 6.125 4.6935C6.65833 4.82283 7.18333 5.01667 7.7 5.275C7.94167 5.4 8.13533 5.58117 8.281 5.8185C8.427 6.05617 8.5 6.31667 8.5 6.6V8H0.5ZM9.5 8V6.5C9.5 6.13333 9.398 5.78117 9.194 5.4435C8.98967 5.10617 8.7 4.81667 8.325 4.575C8.75 4.625 9.15 4.71033 9.525 4.831C9.9 4.952 10.25 5.1 10.575 5.275C10.875 5.44167 11.1042 5.627 11.2625 5.831C11.4208 6.03533 11.5 6.25833 11.5 6.5V8H9.5ZM4.5 4C3.95 4 3.47917 3.80417 3.0875 3.4125C2.69583 3.02083 2.5 2.55 2.5 2C2.5 1.45 2.69583 0.979167 3.0875 0.5875C3.47917 0.195833 3.95 0 4.5 0C5.05 0 5.52083 0.195833 5.9125 0.5875C6.30417 0.979167 6.5 1.45 6.5 2C6.5 2.55 6.30417 3.02083 5.9125 3.4125C5.52083 3.80417 5.05 4 4.5 4ZM9.5 2C9.5 2.55 9.30417 3.02083 8.9125 3.4125C8.52083 3.80417 8.05 4 7.5 4C7.40833 4 7.29167 3.98967 7.15 3.969C7.00833 3.948 6.89167 3.925 6.8 3.9C7.025 3.63333 7.19783 3.3375 7.3185 3.0125C7.4395 2.6875 7.5 2.35 7.5 2C7.5 1.65 7.4395 1.3125 7.3185 0.9875C7.19783 0.6625 7.025 0.366667 6.8 0.0999999C6.91667 0.0583332 7.03333 0.0311668 7.15 0.0185001C7.26667 0.00616676 7.38333 0 7.5 0C8.05 0 8.52083 0.195833 8.9125 0.5875C9.30417 0.979167 9.5 1.45 9.5 2Z" fill="#262732"/>
</svg>
