<svg width="10" height="10" viewBox="0 0 10 10" fill="none" xmlns="http://www.w3.org/2000/svg">
<path d="M5 9.5C3.85 9.5 2.848 9.11867 1.994 8.356C1.13967 7.59367 0.65 6.64167 0.525 5.5H1.55C1.66667 6.36667 2.052 7.08333 2.706 7.65C3.36033 8.21667 4.125 8.5 5 8.5C5.975 8.5 6.802 8.16033 7.481 7.481C8.16033 6.802 8.5 5.975 8.5 5C8.5 4.025 8.16033 3.19783 7.481 2.5185C6.802 1.8395 5.975 1.5 5 1.5C4.425 1.5 3.8875 1.63333 3.3875 1.9C2.8875 2.16667 2.46667 2.53333 2.125 3H3.5V4H0.5V1H1.5V2.175C1.925 1.64167 2.44383 1.22917 3.0565 0.9375C3.66883 0.645833 4.31667 0.5 5 0.5C5.625 0.5 6.2105 0.618667 6.7565 0.856C7.30217 1.09367 7.77717 1.4145 8.1815 1.8185C8.5855 2.22283 8.90633 2.69783 9.144 3.2435C9.38133 3.7895 9.5 4.375 9.5 5C9.5 5.625 9.38133 6.21033 9.144 6.756C8.90633 7.302 8.5855 7.777 8.1815 8.181C7.77717 8.58533 7.30217 8.90633 6.7565 9.144C6.2105 9.38133 5.625 9.5 5 9.5ZM6.4 7.1L4.5 5.2V2.5H5.5V4.8L7.1 6.4L6.4 7.1Z" fill="#262732"/>
</svg>
