<svg width="87" height="52" viewBox="0 0 87 52" fill="none" xmlns="http://www.w3.org/2000/svg">
<path d="M43.3333 10.8333C36.1535 10.8333 30.3333 17.6231 30.3333 26C30.3333 34.3755 36.1535 41.1667 43.3333 41.1667C50.5104 41.1667 56.3333 34.3782 56.3333 26C56.3333 17.6231 50.5131 10.8333 43.3333 10.8333ZM48.75 33.5833C48.75 34.1819 48.2652 34.6667 47.6667 34.6667H39C38.4015 34.6667 37.9167 34.1819 37.9167 33.5833V31.4167C37.9167 30.8181 38.4015 30.3333 39 30.3333H41.1667V22.8258L41.103 22.8678C40.9847 22.9468 40.852 23.0016 40.7124 23.0293C40.5729 23.0569 40.4293 23.0567 40.2898 23.0288C40.1503 23.0009 40.0177 22.9458 39.8996 22.8665C39.7814 22.7873 39.6801 22.6856 39.6012 22.5672L38.3987 20.7648C38.3198 20.6465 38.2649 20.5138 38.2373 20.3742C38.2097 20.2347 38.2098 20.0911 38.2377 19.9516C38.2657 19.8121 38.3208 19.6795 38.4 19.5614C38.4792 19.4432 38.5809 19.3418 38.6994 19.263L40.7753 17.8791C41.309 17.5232 41.9362 17.3333 42.5777 17.3333H44.4167C45.0152 17.3333 45.5 17.8181 45.5 18.4167V30.3333H47.6667C48.2652 30.3333 48.75 30.8181 48.75 31.4167V33.5833ZM82.3333 0H4.33333C1.94052 0 0 1.94052 0 4.33333V47.6667C0 50.0595 1.94052 52 4.33333 52H82.3333C84.7261 52 86.6667 50.0595 86.6667 47.6667V4.33333C86.6667 1.94052 84.7261 0 82.3333 0ZM80.1667 36.8333C75.3797 36.8333 71.5 40.713 71.5 45.5H15.1667C15.1667 40.713 11.287 36.8333 6.5 36.8333V15.1667C11.287 15.1667 15.1667 11.287 15.1667 6.5H71.5C71.5 11.287 75.3797 15.1667 80.1667 15.1667V36.8333Z" fill="#262732"/>
</svg>
