<svg width="6" height="4" viewBox="0 0 6 4" fill="none" xmlns="http://www.w3.org/2000/svg">
<path d="M2.9999 3.48752C2.93324 3.48752 2.86874 3.47502 2.8064 3.45002C2.74374 3.42502 2.69157 3.39169 2.6499 3.35002L0.349902 1.05002C0.258235 0.958358 0.212402 0.841691 0.212402 0.700024C0.212402 0.558357 0.258235 0.441691 0.349902 0.350024C0.441569 0.258358 0.558236 0.212524 0.699902 0.212524C0.841569 0.212524 0.958236 0.258358 1.0499 0.350024L2.9999 2.30002L4.9499 0.350024C5.04157 0.258358 5.15824 0.212524 5.2999 0.212524C5.44157 0.212524 5.55824 0.258358 5.6499 0.350024C5.74157 0.441691 5.7874 0.558357 5.7874 0.700024C5.7874 0.841691 5.74157 0.958358 5.6499 1.05002L3.3499 3.35002C3.2999 3.40002 3.24574 3.43536 3.1874 3.45602C3.12907 3.47702 3.06657 3.48752 2.9999 3.48752V3.48752Z" fill="#262732"/>
</svg>
