<svg width="10" height="10" viewBox="0 0 10 10" fill="none" xmlns="http://www.w3.org/2000/svg">
<path d="M9.5 2.5V8.5C9.5 8.775 9.40217 9.0105 9.2065 9.2065C9.0105 9.40217 8.775 9.5 8.5 9.5H1.5C1.225 9.5 0.9895 9.40217 0.7935 9.2065C0.597833 9.0105 0.5 8.775 0.5 8.5V1.5C0.5 1.225 0.597833 0.9895 0.7935 0.7935C0.9895 0.597833 1.225 0.5 1.5 0.5H7.5L9.5 2.5ZM5 8C5.41667 8 5.77083 7.85417 6.0625 7.5625C6.35417 7.27083 6.5 6.91667 6.5 6.5C6.5 6.08333 6.35417 5.72917 6.0625 5.4375C5.77083 5.14583 5.41667 5 5 5C4.58333 5 4.22917 5.14583 3.9375 5.4375C3.64583 5.72917 3.5 6.08333 3.5 6.5C3.5 6.91667 3.64583 7.27083 3.9375 7.5625C4.22917 7.85417 4.58333 8 5 8ZM2 4H6.5V2H2V4Z" fill="#262732"/>
</svg>
